<svg xmlns="http://www.w3.org/2000/svg" viewBox="7322 -176 762.062 223.397"><defs><style>.cls-1{fill:#414042}</style></defs><g id="Group_453" data-name="Group 453" transform="translate(6585 -191)"><g id="Group_237" data-name="Group 237" transform="translate(737 15)"><path id="Path_303" data-name="Path 303" class="cls-1" d="M56.308 100.385L36.144 72.53h-9.562v27.855H3.3V11h35.13c9.978 0 18.293 2.7 24.737 8.315s9.77 13.1 9.77 22.45c0 11.225-4.781 19.748-14.135 25.568l23.49 33.26H56.308zM26.582 52.367H38.43a10.341 10.341 0 0 0 7.691-2.91 10.678 10.678 0 0 0 2.91-7.691 11.034 11.034 0 0 0-2.91-7.691 10.678 10.678 0 0 0-7.691-2.91H26.582v21.2z" transform="translate(-3.3 11.8)"/><path id="Path_304" data-name="Path 304" class="cls-1" d="M97.991 93.973h-32.22l-3.118 7.276H37.5L78.243 10.2h7.483l40.535 91.048h-24.944zm-16.006-39.5l-7.9 20.787h15.59z" transform="translate(33.592 10.937)"/><path id="Path_305" data-name="Path 305" class="cls-1" d="M156.234 79.39v21H81.4v-6.033L120.48 32H87.22V11h68.806v6.028L116.738 79.39z" transform="translate(80.948 11.8)"/><path id="Path_306" data-name="Path 306" class="cls-1" d="M179.1 93.865h-32.22l-3.326 7.483H118.4L159.143 10.3h7.483l40.951 90.841h-25.152zm-16.006-39.5l-7.9 20.787h15.591z" transform="translate(120.861 11.045)"/><path id="Path_307" data-name="Path 307" class="cls-1" d="M133 2.252c9.562 7.691 19.332-7.691 28.894 0V15.14c-9.562-7.691-19.332 7.691-28.894 0z" transform="translate(136.611 -.032)"/><path id="Path_308" data-name="Path 308" class="cls-1" d="M240.917 23.5a44 44 0 0 1 14.135 33.052 44 44 0 0 1-14.135 33.052c-9.354 8.939-20.787 13.3-34.3 13.3s-24.945-4.365-34.091-13.3c-9.353-8.935-13.926-19.952-13.926-33.048s4.573-24.113 13.927-33.052 20.787-13.3 34.091-13.3c13.512-.004 24.945 4.569 34.299 13.296zm-51.76 15.175q-6.86 6.86-6.86 18.085t6.86 18.085c4.573 4.573 10.394 6.86 17.669 6.86q10.6 0 17.461-6.86t6.86-18.085q0-11.225-6.86-18.085t-17.461-6.86c-7.275-.204-13.096 2.085-17.669 6.864z" transform="translate(164.226 10.937)"/></g><g id="Group_240" data-name="Group 240" transform="translate(737.001 123.443)"><path id="Path_309" data-name="Path 309" class="cls-1" d="M200.917 76.2a44 44 0 0 1 14.136 33.052 44 44 0 0 1-14.136 33.052c-9.354 8.939-20.787 13.3-34.3 13.3s-24.945-4.365-34.091-13.3a44.577 44.577 0 0 1-13.926-33.048c0-13.1 4.573-24.113 13.927-33.052s20.787-13.3 34.091-13.3 24.737 4.361 34.299 13.296zm-51.76 14.967q-6.86 6.86-6.86 18.085t6.86 18.085c4.573 4.573 10.394 6.86 17.669 6.86q10.6 0 17.461-6.86t6.86-18.085q0-11.225-6.86-18.085t-17.461-6.86c-7.275.004-13.303 2.293-17.669 6.864z" transform="translate(127.937 -40.658)"/><path id="Path_310" data-name="Path 310" class="cls-1" d="M121.2 115.045q0 17.773-11.225 28.687c-7.483 7.276-16.838 10.809-28.479 10.809s-21-3.534-28.479-10.809S42 126.893 42 115.045V63.7h23.282v53.216c0 4.989 1.455 9.146 4.573 12.057a16.177 16.177 0 0 0 11.645 4.364c4.781 0 8.731-1.455 11.641-4.365 3.118-2.91 4.573-6.86 4.573-12.057V63.7h23.282v51.345z" transform="translate(45.306 -39.795)"/><path id="Path_311" data-name="Path 311" class="cls-1" d="M158.413 84.7H131.6v68.39h-23.284V84.7H81.5v-21h76.913z" transform="translate(87.916 -39.795)"/><g id="Group_238" data-name="Group 238" transform="translate(749.588 23.905)"><path id="Path_312" data-name="Path 312" class="cls-1" d="M371.2 65.571a6.028 6.028 0 1 1-4.366-1.871 5.37 5.37 0 0 1 4.366 1.871zm-1.04 7.9a5.425 5.425 0 0 0 1.455-3.534 4.558 4.558 0 0 0-1.455-3.534 4.906 4.906 0 0 0-3.326-1.455 4.136 4.136 0 0 0-3.324 1.452 5.015 5.015 0 0 0-1.455 3.534 4.56 4.56 0 0 0 1.455 3.534 4.136 4.136 0 0 0 3.326 1.455 5.481 5.481 0 0 0 3.326-1.453zm-1.663-2.7l1.663 2.287h-1.871l-1.455-1.871H366v1.871h-1.663v-6.24h2.494a2.361 2.361 0 0 1 1.663.624 1.887 1.887 0 0 1 .624 1.455 1.579 1.579 0 0 1-.618 1.871zm-2.494-1.039h1.039a.762.762 0 0 0 .623-.208c.208-.208.208-.208.208-.624a.735.735 0 0 0-.832-.831h-1.039z" transform="translate(-360.6 -63.7)"/></g><path id="Path_313" data-name="Path 313" class="cls-1" d="M297.618 76.2a44 44 0 0 1 14.135 33.052 44 44 0 0 1-14.135 33.052c-9.354 8.939-20.787 13.3-34.3 13.3s-24.945-4.365-34.091-13.3a44.578 44.578 0 0 1-13.927-33.048c0-13.1 4.573-24.113 13.927-33.052s20.787-13.3 34.091-13.3c13.512-.004 24.945 4.361 34.3 13.296zm-51.76 14.967Q239 98.03 239 109.256t6.86 18.085c4.573 4.573 10.394 6.86 17.669 6.86q10.6 0 17.461-6.86t6.86-18.085q0-11.225-6.86-18.085t-17.461-6.86c-7.278 0-13.099 2.289-17.672 6.86z" transform="translate(232.25 -40.658)"/><path id="Path_314" data-name="Path 314" class="cls-1" d="M348.27 63.7l-40.743 91.048h-7.484L259.3 63.7h26.4l18.085 43.861L321.662 63.7z" transform="translate(279.714 -39.795)"/><path id="Path_315" data-name="Path 315" class="cls-1" d="M365.246 84.7h-38.664v12.26h27.647v19.54h-27.647v15.59h40.327v21H303.3V63.7h62.154v21z" transform="translate(327.177 -39.795)"/><path id="Path_316" data-name="Path 316" class="cls-1" d="M360.882 132.09h37v21H337.6V63.7h23.282z" transform="translate(364.178 -39.795)"/><path id="Path_317" data-name="Path 317" class="cls-1" d="M264.142 52.2l-11.434 14.551H234L245.433 52.2z" transform="translate(252.422 -52.2)"/><g id="Group_239" data-name="Group 239" transform="translate(351.512 23.905)"><path id="Path_318" data-name="Path 318" class="cls-1" d="M258.693 63.7v89.385h-22.866v-37l-18.293 21.2h-7.276l-18.293-21v36.794H169.1V63.7h7.275l37.417 45.732L251.209 63.7z" transform="translate(-169.1 -63.7)"/></g><path id="Path_319" data-name="Path 319" class="cls-1" d="M48.019 62.9h-7.276L0 153.948h25.153l3.118-7.483 8.315-18.709 7.9-20.787 7.691 20.787h-7.692l-8.315 18.709h24.321l3.118 7.483h25.153z" transform="translate(0 -40.658)"/></g></g></svg>